<?xml version="1.0" encoding="utf-8"?>
<!-- Generator: Adobe Illustrator 14.0.0, SVG Export Plug-In . SVG Version: 6.00 Build 43363)  -->
<!DOCTYPE svg PUBLIC "-//W3C//DTD SVG 1.1//EN" "http://www.w3.org/Graphics/SVG/1.1/DTD/svg11.dtd">
<svg version="1.1" id="Calque_1" xmlns="http://www.w3.org/2000/svg" xmlns:xlink="http://www.w3.org/1999/xlink" x="0px" y="0px"
	 width="584.828px" height="155.862px" viewBox="0 0 584.828 155.862" enable-background="new 0 0 584.828 155.862"
	 xml:space="preserve">
<path fill="#F9BE5F" d="M580.614,139.328c0,7.32-5.786,13.247-12.915,13.247H16.411c-7.134,0-12.916-5.929-12.916-13.247V17.148
	C3.495,9.831,9.276,3.9,16.411,3.9h551.288c7.133,0,12.915,5.93,12.915,13.248V139.328L580.614,139.328z"/>
<path fill="#AF6A10" d="M411.831,129.162c0,5.968-2.242,10.811-5.002,10.811H193.494c-2.76,0-5.001-4.843-5.001-10.811V29.48
	c0-5.97,2.243-10.804,5.001-10.804h213.334c2.76,0,5.002,4.834,5.002,10.804V129.162z"/>
<path fill="#FCFCFC" d="M55.741,30.019c0,3.017-2.484,5.465-5.546,5.465c-3.06,0-5.537-2.446-5.537-5.465
	c0-3.023,2.477-5.468,5.537-5.468C53.256,24.551,55.741,26.995,55.741,30.019z"/>
<path fill="#FCFCFC" d="M92.271,30.019c0,3.017-2.482,5.465-5.544,5.465c-3.062,0-5.537-2.446-5.537-5.465
	c0-3.023,2.477-5.468,5.537-5.468C89.787,24.551,92.271,26.995,92.271,30.019z"/>
<path fill="#FCFCFC" d="M129.809,30.019c0,3.017-2.481,5.465-5.542,5.465c-3.06,0-5.537-2.446-5.537-5.465
	c0-3.023,2.477-5.468,5.537-5.468C127.328,24.551,129.809,26.995,129.809,30.019z"/>
<path fill="#FCFCFC" d="M166.341,30.019c0,3.017-2.48,5.465-5.541,5.465c-3.06,0-5.536-2.446-5.536-5.465
	c0-3.023,2.477-5.468,5.536-5.468C163.861,24.551,166.341,26.995,166.341,30.019z"/>
<path fill="#FCFCFC" d="M36.967,44.282c0,3.02-2.484,5.473-5.537,5.473c-3.06,0-5.544-2.451-5.544-5.473
	c0-3.022,2.484-5.472,5.544-5.472C34.483,38.811,36.967,41.26,36.967,44.282z"/>
<ellipse fill="#FCFCFC" cx="67.958" cy="44.282" rx="5.541" ry="5.473"/>
<ellipse fill="#FCFCFC" cx="105.503" cy="44.282" rx="5.542" ry="5.473"/>
<ellipse fill="#FCFCFC" cx="142.031" cy="44.282" rx="5.541" ry="5.473"/>
<ellipse fill="#FCFCFC" cx="180.478" cy="44.282" rx="5.539" ry="5.473"/>
<ellipse fill="#FCFCFC" cx="49.745" cy="53.972" rx="5.539" ry="5.468"/>
<ellipse fill="#FCFCFC" cx="86.277" cy="53.972" rx="5.541" ry="5.468"/>
<ellipse fill="#FCFCFC" cx="123.817" cy="53.972" rx="5.541" ry="5.468"/>
<path fill="#FCFCFC" d="M165.892,53.972c0,3.023-2.481,5.468-5.546,5.468c-3.053,0-5.537-2.444-5.537-5.468
	c0-3.024,2.484-5.468,5.537-5.468C163.411,48.504,165.892,50.948,165.892,53.972z"/>
<ellipse fill="#FCFCFC" cx="30.973" cy="68.235" rx="5.539" ry="5.472"/>
<ellipse fill="#FCFCFC" cx="67.511" cy="68.235" rx="5.539" ry="5.472"/>
<ellipse fill="#FCFCFC" cx="105.049" cy="68.235" rx="5.537" ry="5.472"/>
<ellipse fill="#FCFCFC" cx="141.582" cy="68.235" rx="5.542" ry="5.472"/>
<path fill="#FCFCFC" d="M185.564,68.234c0,3.021-2.484,5.472-5.546,5.472c-3.052,0-5.536-2.452-5.536-5.472
	c0-3.02,2.482-5.469,5.536-5.469C183.081,62.767,185.564,65.215,185.564,68.234z"/>
<ellipse fill="#FCFCFC" cx="49.972" cy="77.928" rx="5.539" ry="5.464"/>
<path fill="#FCFCFC" d="M92.048,77.928c0,3.019-2.49,5.464-5.542,5.464c-3.06,0-5.544-2.445-5.544-5.464
	c0-3.021,2.482-5.472,5.544-5.472C89.558,72.457,92.048,74.908,92.048,77.928z"/>
<path fill="#FCFCFC" d="M129.582,77.928c0,3.019-2.477,5.464-5.537,5.464c-3.065,0-5.546-2.445-5.546-5.464
	c0-3.021,2.48-5.472,5.546-5.472C127.105,72.457,129.582,74.908,129.582,77.928z"/>
<ellipse fill="#FCFCFC" cx="160.576" cy="77.928" rx="5.544" ry="5.464"/>
<ellipse fill="#FCFCFC" cx="31.202" cy="92.192" rx="5.54" ry="5.468"/>
<ellipse fill="#FCFCFC" cx="67.738" cy="92.192" rx="5.539" ry="5.468"/>
<ellipse fill="#FCFCFC" cx="105.274" cy="92.192" rx="5.541" ry="5.468"/>
<ellipse fill="#FCFCFC" cx="141.808" cy="92.192" rx="5.541" ry="5.468"/>
<ellipse fill="#FCFCFC" cx="180.251" cy="92.192" rx="5.542" ry="5.468"/>
<ellipse fill="#FCFCFC" cx="49.52" cy="101.882" rx="5.542" ry="5.464"/>
<ellipse fill="#FCFCFC" cx="86.056" cy="101.882" rx="5.54" ry="5.464"/>
<ellipse fill="#FCFCFC" cx="123.59" cy="101.882" rx="5.537" ry="5.464"/>
<ellipse fill="#FCFCFC" cx="160.126" cy="101.882" rx="5.538" ry="5.464"/>
<path fill="#FCFCFC" d="M30.748,110.676c3.06,0,5.542,2.448,5.542,5.467c0,3.023-2.482,5.469-5.542,5.469
	c-3.06,0-5.54-2.446-5.54-5.469C25.208,113.124,27.688,110.676,30.748,110.676z"/>
<path fill="#FCFCFC" d="M67.283,110.676c3.06,0,5.538,2.448,5.538,5.467c0,3.023-2.478,5.469-5.538,5.469s-5.539-2.446-5.539-5.469
	C61.744,113.124,64.223,110.676,67.283,110.676z"/>
<path fill="#FCFCFC" d="M104.82,110.676c3.061,0,5.539,2.448,5.539,5.467c0,3.023-2.478,5.469-5.539,5.469
	c-3.058,0-5.538-2.446-5.538-5.469C99.282,113.124,101.762,110.676,104.82,110.676z"/>
<path fill="#FCFCFC" d="M141.354,110.676c3.06,0,5.539,2.448,5.539,5.467c0,3.023-2.479,5.469-5.539,5.469
	c-3.06,0-5.539-2.446-5.539-5.469C135.816,113.124,138.295,110.676,141.354,110.676z"/>
<path fill="#FCFCFC" d="M179.801,110.676c3.058,0,5.539,2.448,5.539,5.467c0,3.023-2.48,5.469-5.539,5.469
	c-3.06,0-5.541-2.446-5.541-5.469C174.261,113.124,176.742,110.676,179.801,110.676z"/>
<ellipse fill="#FCFCFC" cx="49.972" cy="127.085" rx="5.539" ry="5.467"/>
<path fill="#FCFCFC" d="M92.048,127.084c0,3.021-2.49,5.468-5.542,5.468c-3.06,0-5.544-2.445-5.544-5.468
	c0-3.022,2.482-5.473,5.544-5.473C89.558,121.612,92.048,124.062,92.048,127.084z"/>
<ellipse fill="#FCFCFC" cx="124.042" cy="127.085" rx="5.541" ry="5.467"/>
<ellipse fill="#FCFCFC" cx="160.576" cy="127.085" rx="5.544" ry="5.467"/>
<path fill="#FCFCFC" d="M427.353,29.744c0,3.028-2.484,5.472-5.544,5.472c-3.061,0-5.54-2.442-5.54-5.472
	c0-3.016,2.479-5.464,5.54-5.464C424.869,24.28,427.353,26.729,427.353,29.744z"/>
<path fill="#FCFCFC" d="M463.885,29.744c0,3.028-2.482,5.472-5.546,5.472c-3.062,0-5.536-2.442-5.536-5.472
	c0-3.016,2.477-5.464,5.536-5.464C461.401,24.28,463.885,26.729,463.885,29.744z"/>
<path fill="#FCFCFC" d="M501.416,29.744c0,3.028-2.476,5.472-5.537,5.472s-5.538-2.442-5.538-5.472c0-3.016,2.477-5.464,5.538-5.464
	S501.416,26.729,501.416,29.744z"/>
<path fill="#FCFCFC" d="M537.956,29.744c0,3.028-2.478,5.472-5.542,5.472c-3.06,0-5.538-2.442-5.538-5.472
	c0-3.016,2.479-5.464,5.538-5.464C535.478,24.28,537.956,26.729,537.956,29.744z"/>
<path fill="#FCFCFC" d="M408.579,44.011c0,3.024-2.484,5.474-5.544,5.474c-3.052,0-5.536-2.448-5.536-5.474
	c0-3.016,2.484-5.468,5.536-5.468C406.094,38.543,408.579,40.995,408.579,44.011z"/>
<path fill="#FCFCFC" d="M445.115,44.011c0,3.024-2.483,5.474-5.539,5.474c-3.061,0-5.54-2.448-5.54-5.474
	c0-3.016,2.479-5.468,5.54-5.468C442.631,38.543,445.115,40.995,445.115,44.011z"/>
<path fill="#FCFCFC" d="M482.649,44.011c0,3.024-2.48,5.474-5.536,5.474c-3.062,0-5.541-2.448-5.541-5.474
	c0-3.016,2.481-5.468,5.541-5.468C480.168,38.543,482.649,40.995,482.649,44.011z"/>
<path fill="#FCFCFC" d="M519.184,44.011c0,3.024-2.478,5.474-5.537,5.474c-3.062,0-5.541-2.448-5.541-5.474
	c0-3.016,2.479-5.468,5.541-5.468C516.707,38.543,519.184,40.995,519.184,44.011z"/>
<path fill="#FCFCFC" d="M557.631,44.011c0,3.024-2.482,5.474-5.542,5.474c-3.063,0-5.546-2.448-5.546-5.474
	c0-3.016,2.482-5.468,5.546-5.468C555.149,38.543,557.631,40.995,557.631,44.011z"/>
<ellipse fill="#FCFCFC" cx="421.353" cy="53.701" rx="5.542" ry="5.47"/>
<ellipse fill="#FCFCFC" cx="457.889" cy="53.701" rx="5.54" ry="5.47"/>
<path fill="#FCFCFC" d="M500.968,53.701c0,3.026-2.484,5.47-5.539,5.47c-3.059,0-5.547-2.444-5.547-5.47
	c0-3.02,2.488-5.464,5.547-5.464C498.484,48.237,500.968,50.682,500.968,53.701z"/>
<path fill="#FCFCFC" d="M537.502,53.701c0,3.026-2.482,5.47-5.546,5.47c-3.052,0-5.538-2.444-5.538-5.47
	c0-3.02,2.486-5.464,5.538-5.464C535.02,48.237,537.502,50.682,537.502,53.701z"/>
<ellipse fill="#FCFCFC" cx="402.587" cy="67.97" rx="5.538" ry="5.468"/>
<ellipse fill="#FCFCFC" cx="439.124" cy="67.97" rx="5.537" ry="5.468"/>
<ellipse fill="#FCFCFC" cx="476.659" cy="67.97" rx="5.54" ry="5.468"/>
<ellipse fill="#FCFCFC" cx="513.193" cy="67.97" rx="5.542" ry="5.468"/>
<path fill="#FCFCFC" d="M551.64,62.502c3.06,0,5.537,2.448,5.537,5.468s-2.478,5.468-5.537,5.468c-3.062,0-5.543-2.448-5.543-5.468
	S548.579,62.502,551.64,62.502z"/>
<ellipse fill="#FCFCFC" cx="421.582" cy="77.659" rx="5.54" ry="5.472"/>
<ellipse fill="#FCFCFC" cx="458.116" cy="77.659" rx="5.54" ry="5.472"/>
<path fill="#FCFCFC" d="M501.194,77.659c0,3.021-2.484,5.472-5.544,5.472c-3.052,0-5.536-2.451-5.536-5.472
	c0-3.024,2.484-5.468,5.536-5.468C498.709,72.189,501.194,74.633,501.194,77.659z"/>
<path fill="#FCFCFC" d="M532.189,72.188c3.056,0,5.538,2.45,5.538,5.472c0,3.021-2.482,5.472-5.538,5.472
	c-3.06,0-5.542-2.451-5.542-5.472C526.647,74.637,529.129,72.188,532.189,72.188z"/>
<ellipse fill="#FCFCFC" cx="402.812" cy="91.921" rx="5.544" ry="5.473"/>
<path fill="#FCFCFC" d="M444.888,91.919c0,3.022-2.484,5.475-5.536,5.475c-3.06,0-5.544-2.452-5.544-5.475
	c0-3.021,2.484-5.463,5.544-5.463C442.404,86.459,444.888,88.9,444.888,91.919z"/>
<ellipse fill="#FCFCFC" cx="476.886" cy="91.921" rx="5.542" ry="5.473"/>
<path fill="#FCFCFC" d="M518.96,91.919c0,3.022-2.484,5.475-5.544,5.475s-5.536-2.452-5.536-5.475c0-3.021,2.477-5.463,5.536-5.463
	S518.96,88.9,518.96,91.919z"/>
<path fill="#FCFCFC" d="M557.407,91.919c0,3.022-2.482,5.475-5.546,5.475c-3.06,0-5.542-2.452-5.542-5.475
	c0-3.021,2.482-5.463,5.542-5.463C554.924,86.459,557.407,88.9,557.407,91.919z"/>
<path fill="#FCFCFC" d="M426.676,101.616c0,3.019-2.484,5.467-5.547,5.467c-3.06,0-5.539-2.444-5.539-5.467
	c0-3.03,2.479-5.475,5.539-5.475C424.192,96.142,426.676,98.586,426.676,101.616z"/>
<path fill="#FCFCFC" d="M463.201,101.616c0,3.019-2.477,5.467-5.536,5.467s-5.54-2.444-5.54-5.467c0-3.03,2.48-5.475,5.54-5.475
	S463.201,98.586,463.201,101.616z"/>
<path fill="#FCFCFC" d="M500.739,101.616c0,3.019-2.474,5.467-5.537,5.467c-3.06,0-5.54-2.444-5.54-5.467
	c0-3.03,2.48-5.475,5.54-5.475C498.265,96.142,500.739,98.586,500.739,101.616z"/>
<path fill="#FCFCFC" d="M537.274,101.616c0,3.019-2.479,5.467-5.539,5.467s-5.534-2.444-5.534-5.467c0-3.03,2.475-5.475,5.534-5.475
	S537.274,98.586,537.274,101.616z"/>
<path fill="#FCFCFC" d="M407.899,115.88c0,3.015-2.478,5.467-5.541,5.467c-3.058,0-5.538-2.453-5.538-5.467
	c0-3.026,2.48-5.469,5.538-5.469C405.423,110.412,407.899,112.854,407.899,115.88z"/>
<ellipse fill="#FCFCFC" cx="438.894" cy="115.88" rx="5.541" ry="5.468"/>
<ellipse fill="#FCFCFC" cx="476.434" cy="115.88" rx="5.538" ry="5.468"/>
<ellipse fill="#FCFCFC" cx="512.966" cy="115.88" rx="5.54" ry="5.468"/>
<ellipse fill="#FCFCFC" cx="551.411" cy="115.88" rx="5.542" ry="5.468"/>
<ellipse fill="#FCFCFC" cx="421.582" cy="126.815" rx="5.54" ry="5.467"/>
<ellipse fill="#FCFCFC" cx="458.116" cy="126.815" rx="5.54" ry="5.467"/>
<path fill="#FCFCFC" d="M501.194,126.814c0,3.019-2.484,5.468-5.544,5.468c-3.052,0-5.536-2.445-5.536-5.468
	c0-3.024,2.484-5.467,5.536-5.467C498.709,121.348,501.194,123.791,501.194,126.814z"/>
<path fill="#FCFCFC" d="M532.189,121.348c3.056,0,5.538,2.448,5.538,5.467c0,3.019-2.482,5.468-5.538,5.468
	c-3.06,0-5.542-2.449-5.542-5.468C526.647,123.796,529.129,121.348,532.189,121.348z"/>
<ellipse fill="#FCFCFC" cx="235.321" cy="29.393" rx="5.541" ry="5.468"/>
<ellipse fill="#FCFCFC" cx="271.854" cy="29.393" rx="5.541" ry="5.468"/>
<ellipse fill="#FCFCFC" cx="309.393" cy="29.393" rx="5.539" ry="5.468"/>
<ellipse fill="#FCFCFC" cx="345.925" cy="29.393" rx="5.539" ry="5.468"/>
<ellipse fill="#FCFCFC" cx="216.555" cy="43.658" rx="5.541" ry="5.468"/>
<ellipse fill="#FCFCFC" cx="253.087" cy="43.658" rx="5.539" ry="5.468"/>
<ellipse fill="#FCFCFC" cx="290.625" cy="43.658" rx="5.539" ry="5.468"/>
<ellipse fill="#FCFCFC" cx="327.158" cy="43.658" rx="5.541" ry="5.468"/>
<ellipse fill="#FCFCFC" cx="365.599" cy="43.658" rx="5.541" ry="5.468"/>
<ellipse fill="#FCFCFC" cx="234.87" cy="53.346" rx="5.536" ry="5.474"/>
<ellipse fill="#FCFCFC" cx="271.407" cy="53.346" rx="5.539" ry="5.474"/>
<ellipse fill="#FCFCFC" cx="308.939" cy="53.346" rx="5.541" ry="5.474"/>
<ellipse fill="#FCFCFC" cx="345.475" cy="53.346" rx="5.542" ry="5.474"/>
<ellipse fill="#FCFCFC" cx="216.1" cy="67.609" rx="5.541" ry="5.47"/>
<ellipse fill="#FCFCFC" cx="252.632" cy="67.609" rx="5.54" ry="5.47"/>
<ellipse fill="#FCFCFC" cx="290.169" cy="67.609" rx="5.542" ry="5.47"/>
<path fill="#FCFCFC" d="M332.247,67.609c0,3.025-2.484,5.47-5.544,5.47c-3.053,0-5.537-2.445-5.537-5.47
	c0-3.021,2.482-5.465,5.537-5.465C329.762,62.145,332.247,64.589,332.247,67.609z"/>
<ellipse fill="#FCFCFC" cx="365.143" cy="67.609" rx="5.541" ry="5.47"/>
<ellipse fill="#FCFCFC" cx="235.096" cy="77.304" rx="5.541" ry="5.469"/>
<ellipse fill="#FCFCFC" cx="271.629" cy="77.304" rx="5.542" ry="5.469"/>
<ellipse fill="#FCFCFC" cx="309.167" cy="77.304" rx="5.541" ry="5.469"/>
<ellipse fill="#FCFCFC" cx="345.699" cy="77.304" rx="5.54" ry="5.469"/>
<path fill="#FCFCFC" d="M221.865,91.57c0,3.017-2.477,5.46-5.537,5.46c-3.06,0-5.544-2.441-5.544-5.46
	c0-3.026,2.484-5.471,5.544-5.471C219.388,86.098,221.865,88.541,221.865,91.57z"/>
<path fill="#FCFCFC" d="M258.403,91.57c0,3.017-2.484,5.46-5.541,5.46c-3.06,0-5.544-2.441-5.544-5.46
	c0-3.026,2.482-5.471,5.544-5.471C255.918,86.098,258.403,88.541,258.403,91.57z"/>
<path fill="#FCFCFC" d="M295.941,91.57c0,3.017-2.484,5.46-5.545,5.46c-3.06,0-5.54-2.441-5.54-5.46c0-3.026,2.48-5.471,5.54-5.471
	C293.457,86.099,295.941,88.541,295.941,91.57z"/>
<path fill="#FCFCFC" d="M332.474,91.57c0,3.017-2.482,5.46-5.544,5.46c-3.063,0-5.542-2.441-5.542-5.46
	c0-3.026,2.482-5.471,5.542-5.471C329.991,86.099,332.474,88.541,332.474,91.57z"/>
<path fill="#FCFCFC" d="M370.915,91.57c0,3.017-2.481,5.46-5.543,5.46c-3.056,0-5.536-2.441-5.536-5.46
	c0-3.026,2.48-5.471,5.536-5.471C368.433,86.098,370.915,88.541,370.915,91.57z"/>
<ellipse fill="#FCFCFC" cx="234.643" cy="101.257" rx="5.539" ry="5.47"/>
<ellipse fill="#FCFCFC" cx="271.177" cy="101.257" rx="5.539" ry="5.47"/>
<ellipse fill="#FCFCFC" cx="308.716" cy="101.257" rx="5.541" ry="5.47"/>
<ellipse fill="#FCFCFC" cx="345.249" cy="101.257" rx="5.539" ry="5.47"/>
<ellipse fill="#FCFCFC" cx="215.871" cy="115.524" rx="5.539" ry="5.467"/>
<ellipse fill="#FCFCFC" cx="252.409" cy="115.524" rx="5.539" ry="5.467"/>
<ellipse fill="#FCFCFC" cx="289.943" cy="115.524" rx="5.543" ry="5.467"/>
<ellipse fill="#FCFCFC" cx="326.478" cy="115.524" rx="5.542" ry="5.467"/>
<path fill="#FCFCFC" d="M370.462,115.524c0,3.018-2.477,5.467-5.545,5.467c-3.054,0-5.537-2.449-5.537-5.467
	c0-3.024,2.483-5.475,5.537-5.475C367.986,110.053,370.462,112.5,370.462,115.524z"/>
<ellipse fill="#FCFCFC" cx="235.096" cy="126.459" rx="5.541" ry="5.468"/>
<ellipse fill="#FCFCFC" cx="271.629" cy="126.459" rx="5.542" ry="5.468"/>
<ellipse fill="#FCFCFC" cx="309.167" cy="126.459" rx="5.541" ry="5.468"/>
<ellipse fill="#FCFCFC" cx="345.699" cy="126.459" rx="5.54" ry="5.468"/>
<path fill="#FCFCFC" d="M203.509,30.019c0,3.017-2.48,5.465-5.54,5.465c-3.058,0-5.539-2.446-5.539-5.465
	c0-3.023,2.481-5.468,5.539-5.468C201.029,24.551,203.509,26.995,203.509,30.019z"/>
<path fill="#FCFCFC" d="M203.056,53.972c0,3.023-2.484,5.468-5.544,5.468c-3.052,0-5.537-2.444-5.537-5.468
	c0-3.024,2.482-5.468,5.537-5.468C200.573,48.504,203.056,50.948,203.056,53.972z"/>
<ellipse fill="#FCFCFC" cx="197.744" cy="77.928" rx="5.542" ry="5.464"/>
<ellipse fill="#FCFCFC" cx="197.292" cy="101.882" rx="5.538" ry="5.464"/>
<ellipse fill="#FCFCFC" cx="197.744" cy="127.085" rx="5.542" ry="5.467"/>
<path fill="#FCFCFC" d="M389.995,30.019c0,3.017-2.48,5.465-5.536,5.465c-3.06,0-5.541-2.446-5.541-5.465
	c0-3.023,2.481-5.468,5.541-5.468C387.514,24.551,389.995,26.995,389.995,30.019z"/>
<path fill="#FCFCFC" d="M389.542,53.972c0,3.023-2.483,5.468-5.535,5.468c-3.06,0-5.544-2.444-5.544-5.468
	c0-3.024,2.484-5.468,5.544-5.468C387.059,48.504,389.542,50.948,389.542,53.972z"/>
<ellipse fill="#FCFCFC" cx="384.232" cy="77.928" rx="5.54" ry="5.464"/>
<ellipse fill="#FCFCFC" cx="383.778" cy="101.882" rx="5.54" ry="5.464"/>
<ellipse fill="#FCFCFC" cx="384.232" cy="127.085" rx="5.54" ry="5.467"/>
</svg>
