<?xml version="1.0"?>
<svg xmlns="http://www.w3.org/2000/svg" viewBox="0 0 50 50">
    <path style="text-indent:0;text-align:start;line-height:normal;text-transform:none;block-progression:tb;-inkscape-font-specification:Sans" d="M 25.4375 0 C 25.016843 0.0066157088 24.601547 0.075574885 24.1875 0.1875 C 22.169024 0.73334303 20.488969 1.8045546 19.5 3.75 C 18.511031 5.6954454 18.125 8.3786787 18.125 12.28125 L 18.125 14.03125 C 16.127079 14.773565 13.24883 15.824239 13.03125 15.90625 C 12.74225 16.04325 12.4625 16.142 12.1875 16.25 C 10.0955 17.076 8.5675 18.021 8.0625 22.625 L 6 44.09375 C 5.97 44.40575 6.0825 44.69425 6.3125 44.90625 C 9.8345 48.15225 16.02025 49.89675 16.28125 49.96875 C 16.37125 49.99275 16.44225 50 16.53125 50 C 16.68925 50 16.857 49.948 17 49.875 L 41.1875 37.4375 C 41.5205 37.2655 41.75 36.9375 41.75 36.5625 C 41.75 34.1295 41.53175 31.772 41.34375 30.125 C 39.11475 31.738 35.962 33.8855 33.375 35.0625 C 33.34 35.0785 33.31625 35.07775 33.28125 35.09375 C 33.25325 36.20175 32.46975 37.3385 31.34375 37.8125 C 30.21875 38.2875 29.09775 37.9465 28.59375 37.0625 C 22.68875 39.3635 19.0025 40.09 18.8125 40.125 C 18.7515 40.136 18.686 40.125 18.625 40.125 C 18.403 40.125 18.20925 40.04625 18.03125 39.90625 C 17.80525 39.72825 17.641 39.4745 17.625 39.1875 C 17.62 39.0985 17.11925 30.29075 15.90625 25.09375 C 14.87225 20.66975 11.4485 21.0145 11.0625 21.0625 C 10.5095 21.1295 10.0135 20.7315 9.9375 20.1875 C 9.8625 19.6425 10.23725 19.1405 10.78125 19.0625 C 12.70825 18.7835 16.695 19.60125 17.875 24.65625 C 18.871 28.92325 19.3825 35.29025 19.5625 37.90625 C 21.6015 37.40725 26.30325 36.083 32.53125 33.25 C 35.78625 31.77 40.20625 28.513 42.03125 27.125 C 42.11025 27.053 42.1715 26.98375 42.1875 26.96875 C 42.4175 26.75475 42.534 26.47025 42.5 26.15625 C 42.464 25.81725 41.5885 17.79525 40.0625 13.53125 C 38.3695 8.80225 34.4945 8.15225 31.6875 9.03125 C 31.620774 9.0521479 30.88644 9.3277807 30.75 9.375 L 30.75 7.65625 C 30.75 4.870086 30.06861 2.7849434 28.84375 1.46875 C 28.23132 0.81065331 27.494151 0.3705259 26.6875 0.15625 C 26.284174 0.04911205 25.858157 -0.0066157088 25.4375 0 z M 25.46875 2 C 26.189523 1.9728859 26.812583 2.2393948 27.375 2.84375 C 28.12489 3.6495566 28.75 5.199414 28.75 7.65625 L 28.75 10.125 C 26.325867 11.001024 23.942159 11.86561 20.125 13.28125 L 20.125 12.28125 C 20.125 8.5178213 20.542969 6.1085546 21.28125 4.65625 C 22.019531 3.2039454 23.028226 2.582157 24.71875 2.125 C 24.984453 2.0531751 25.228492 2.009038 25.46875 2 z" overflow="visible" font-family="Sans"/>
</svg>
